<?xml version="1.0" encoding="UTF-8" standalone="no"?>
<svg
   width="400"
   height="85"
   viewBox="0 0 400 85"
   version="1.1"
   id="svg6"
   sodipodi:docname="uphf-logo.svg"
   inkscape:version="1.3 (0e150ed, 2023-07-21)"
   xmlns:inkscape="http://www.inkscape.org/namespaces/inkscape"
   xmlns:sodipodi="http://sodipodi.sourceforge.net/DTD/sodipodi-0.dtd"
   xmlns="http://www.w3.org/2000/svg"
   xmlns:svg="http://www.w3.org/2000/svg">
  <sodipodi:namedview
     id="namedview6"
     pagecolor="#ffffff"
     bordercolor="#000000"
     borderopacity="0.25"
     inkscape:showpageshadow="2"
     inkscape:pageopacity="0.0"
     inkscape:pagecheckerboard="0"
     inkscape:deskcolor="#d1d1d1"
     showgrid="true"
     inkscape:zoom="3.4828365"
     inkscape:cx="175.1446"
     inkscape:cy="64.458955"
     inkscape:window-width="2480"
     inkscape:window-height="1212"
     inkscape:window-x="78"
     inkscape:window-y="28"
     inkscape:window-maximized="0"
     inkscape:current-layer="svg6">
    <inkscape:grid
       id="grid11"
       units="px"
       originx="0"
       originy="0"
       spacingx="1"
       spacingy="1"
       empcolor="#0099e5"
       empopacity="0.30196078"
       color="#0099e5"
       opacity="0.14901961"
       empspacing="5"
       dotted="false"
       gridanglex="30"
       gridanglez="30"
       visible="true" />
  </sodipodi:namedview>
  <defs
     id="defs6" />
  <g
     id="Symbols"
     stroke="none"
     stroke-width="1"
     fill="none"
     fill-rule="evenodd">
    <g
       fill-rule="nonzero"
       id="g6">
      <g
         id="g5">
        <path
           d="M 7.7282629,3.2505721 3.3933766,0 C -2.3627839,8.1749461 -0.63356698,19.600464 7.3492564,25.519416 13.887118,30.346758 22.746393,30.152694 29,24.937224 L 25.61263,20.595042 C 20.235476,25.034256 12.442156,24.13671 8.1072693,18.630144 4.6488354,14.19093 4.4593322,7.8838501 7.7282629,3.2505721"
           id="Path"
           fill="#0f0c0a" />
        <path
           d="M 59,41.714903 58.903459,42 H 59 Z M 43.915527,25.203024 42.539823,20 C 34.599356,22.019438 29,29.170626 29,37.272138 c 0,1.544277 0.193081,2.993521 0.603379,4.537797 l 5.285599,-1.354212 c -0.289622,-1.069114 -0.386162,-2.019438 -0.386162,-3.088552 0,-5.796977 3.909895,-10.714903 9.412711,-12.164147"
           id="Shape"
           fill="#0f0c0a" />
        <path
           d="M 28,50.488372 C 28,40.860465 20.050256,33 10.284103,33 8.4676923,33 6.745641,33.302326 5,33.767442 l 1.5333333,5.093023 c 1.1558975,-0.372093 2.4061539,-0.558139 3.6564107,-0.558139 6.793846,0 12.361025,5.465116 12.361025,12.186046 v 1.046512 L 27.905641,52 C 27.905641,51.534884 28,51.046512 28,50.488372"
           id="path1"
           fill="#008db0" />
        <path
           d="m 226.56977,52.59813 c 0,-2.720051 1.3207,-3.769895 3.22065,-3.769895 1.87677,0 3.19747,1.169144 3.19747,3.769895 v 0.190881 h -6.41812 z M 236,53.576394 c 0,-5.440102 -2.54871,-7.659091 -6.20958,-7.659091 -3.68405,0 -6.23276,2.218989 -6.23276,7.659091 v 0.668082 c 0,5.344661 2.73407,7.56365 6.88152,7.56365 1.87678,0 3.75355,-0.477202 5.44497,-1.550906 l -0.9268,-2.62461 c -1.41338,0.882823 -2.91944,1.264585 -4.51817,1.264585 -2.36335,0 -3.86941,-1.264585 -3.86941,-3.674455 V 55.1273 H 236 Z m -15.24592,-7.277329 h -3.01211 v 12.120928 c -0.94997,0.381761 -1.89995,0.477202 -2.82675,0.477202 -2.27067,0 -3.77673,-1.145285 -3.77673,-4.557278 v -8.040852 h -2.91943 v 7.945411 c 0,5.344661 2.73407,7.65909 6.5108,7.65909 2.06214,0 4.12427,-0.381761 5.90837,-1.360025 z m -24.67614,7.277329 c 0,-3.793755 1.50605,-4.8436 3.96208,-4.8436 0.83412,0 1.69142,0.190881 2.54871,0.477202 v 9.209997 c -0.76461,0.381761 -1.59874,0.572642 -2.36335,0.477202 -2.45603,0 -4.14744,-0.954404 -4.14744,-4.8436 z m 9.43022,-6.299065 c -1.71458,-0.882824 -3.59136,-1.360026 -5.56082,-1.264585 -4.14745,0 -6.88152,2.433729 -6.88152,7.65909 v 0.572642 c 0,5.344661 3.01212,7.65909 6.88152,7.65909 0.83412,0 1.7841,-0.09544 2.64139,-0.477201 v 7.563649 h 3.01211 z m -18.65192,-5.440102 c 0,1.073704 0.85729,1.861088 1.7841,1.861088 1.04265,0 1.80726,-0.882824 1.80726,-1.861088 C 190.4476,40.787383 189.59031,40 188.64034,40 c -0.94998,0 -1.7841,0.787383 -1.7841,1.837227 m 0.39389,19.589138 h 2.89626 v -15.1273 h -2.89626 z m -15.82517,0 h 2.91943 V 49.209996 c 0.85729,-0.381761 1.7841,-0.477202 2.73407,-0.477202 2.2475,0 3.75356,1.145285 3.75356,4.652719 v 8.040852 h 2.91943 v -7.849971 c 0,-5.344662 -2.73407,-7.659091 -6.48763,-7.659091 -2.06214,-0.09544 -4.05476,0.381762 -5.93154,1.264585 z m -15.24592,0 h 2.91943 V 49.209996 c 0.8573,-0.286321 1.7841,-0.477202 2.73407,-0.477202 2.2475,0 3.75356,1.145285 3.75356,4.652719 v 8.040852 h 2.91943 v -7.849971 c 0,-5.344662 -2.73407,-7.659091 -6.48763,-7.659091 -1.04265,0 -1.96945,0.09544 -3.01211,0.286321 v -6.012743 h -2.91943 z m -14.29594,-7.46821 c 0,5.535542 2.82675,7.65909 6.76566,7.65909 1.7841,0 3.59137,-0.477202 5.09742,-1.550906 l -1.04265,-2.62461 c -1.22802,0.787383 -2.54871,1.264585 -3.96209,1.264585 -2.2475,0 -3.84623,-1.169145 -3.84623,-4.843599 v -0.477202 c 0,-3.698315 1.59873,-4.843599 3.84623,-4.843599 1.41338,0 2.82675,0.477202 3.96209,1.336165 l 1.13533,-2.60075 c -1.50605,-0.978264 -3.31332,-1.550906 -5.09742,-1.550906 -3.93891,0 -6.76566,2.123548 -6.76566,7.65909 z m -11.77041,-1.455466 c 0,-2.72005 1.3207,-3.769895 3.19747,-3.769895 1.87678,0 3.19748,1.145285 3.19748,3.769895 v 0.190881 h -6.39495 z m 9.40706,0.978264 c 0,-5.440101 -2.54871,-7.65909 -6.20959,-7.65909 -3.66087,0 -6.20958,2.218989 -6.20958,7.65909 v 0.668083 c 0,5.344661 2.73407,7.56365 6.88152,7.56365 1.87677,0 3.75355,-0.477202 5.44497,-1.550906 l -0.94998,-2.624611 c -1.3902,0.787383 -2.89626,1.264585 -4.49499,1.264585 -2.36335,0 -3.86941,-1.264585 -3.86941,-3.674454 v -0.09544 h 9.40706 z m -23.91153,2.600751 c 0,4.080076 2.27066,5.630982 5.28278,5.630982 1.69141,0.09544 3.29015,-0.477202 4.61084,-1.550906 -0.27804,-0.858964 -0.55608,-1.741787 -1.04265,-2.624611 -0.74144,0.691943 -1.69142,1.073704 -2.61822,1.169145 -0.48657,0.09544 -0.94997,0.09544 -1.41338,0.09544 -1.13533,-0.190881 -1.89994,-0.858963 -1.89994,-2.60075 v -6.991008 h 5.74618 v -2.815491 h -5.74618 v -4.557278 h -2.91943 z m -3.47552,-9.87808 h -2.91943 v 12.120928 c -0.74144,0.381762 -1.50606,0.572643 -2.34018,0.572643 -2.54871,0 -4.14744,-1.145285 -4.14744,-4.652719 v -8.040852 h -2.919436 v 7.945412 c 0,5.344661 2.919436,7.65909 6.672986,7.65909 0.94997,0 1.89995,-0.09544 2.82675,-0.477202 v 0.954404 c 0,2.815491 -1.41338,3.889195 -3.38283,3.889195 -1.69142,0 -3.29015,-0.477202 -4.70353,-1.360025 l -1.04265,2.720051 c 1.69141,0.954403 3.68404,1.550906 5.6535,1.455465 3.66087,0 6.39494,-2.242848 6.39494,-6.800126 z M 90.95524,56.391885 c 0,3.865335 1.899947,5.22536 4.425487,5.22536 1.135334,0 2.177988,-0.19088 3.104792,-0.763523 l -0.926804,-2.62461 c -0.579252,0.381761 -1.135334,0.572642 -1.807267,0.572642 -1.112164,0 -1.876777,-0.572642 -1.876777,-2.409869 V 40.190881 h -3.012112 z m -15.245919,-2.33829 c 0,5.535542 2.73407,7.659091 6.209584,7.659091 3.498683,0 6.209584,-2.123549 6.209584,-7.659091 v -0.477201 c 0,-5.535542 -2.710901,-7.659091 -6.209584,-7.659091 -3.475514,0 -6.209584,2.123549 -6.209584,7.659091 z m 9.407056,0 c 0,3.698315 -1.204845,4.8436 -3.197472,4.8436 -1.969458,0 -3.290153,-1.145285 -3.290153,-4.8436 v -0.477201 c 0,-3.698315 1.228015,-4.8436 3.290153,-4.8436 2.062138,0 3.197472,1.145285 3.197472,4.8436 z m -18.16535,-9.400877 c 3.127962,0 4.054765,1.169145 4.054765,3.197253 0,2.028108 -0.926803,3.101812 -4.054765,3.101812 H 63.012112 V 44.652718 Z M 60,41.741787 v 19.684578 h 3.104792 v -7.56365 h 3.962085 c 5.07425,0 7.136388,-2.52917 7.136388,-6.012744 0,-3.483574 -1.969458,-6.108184 -7.136388,-6.108184 z"
           id="path2"
           fill="#008db0" />
        <path
           d="m 186.92728,16.283679 -2.32884,3.944867 h 2.14438 l 2.99751,-3.944867 z m -4.31181,11.811533 c 0,-2.606843 1.31429,-3.644966 3.20503,-3.644966 1.86769,0 3.18198,1.130401 3.18198,3.644966 v 0.184555 h -6.38701 z M 192,29.041057 c 0,-5.259823 -2.53636,-7.405277 -6.1795,-7.405277 -3.64313,0 -6.20255,2.145454 -6.20255,7.405277 V 29.687 c 0,5.167546 2.72082,7.313 6.84817,7.313 1.86769,0 3.73537,-0.461388 5.44165,-1.499511 l -0.94537,-2.537634 c -1.3143,0.853568 -2.90529,1.222678 -4.49628,1.222678 -2.3519,0 -3.85065,-1.222678 -3.85065,-3.552687 v -0.09228 H 192 Z m -24.07237,2.514565 c 0,3.944867 2.23661,5.3521 5.23413,5.3521 1.68322,0 3.27421,-0.461388 4.58851,-1.499511 -0.2767,-0.853567 -0.64562,-1.684066 -0.92232,-2.537634 -0.76091,0.669013 -1.68322,1.038123 -2.72082,1.130401 -0.46116,0.09228 -0.94537,0.09228 -1.40653,0.09228 -1.12983,-0.184556 -1.86768,-0.830499 -1.86768,-2.537634 v -6.828543 h 5.69528 V 22.00489 h -5.69528 v -4.406256 h -2.90529 z M 160.6183,17.78319 c 0,1.038123 0.83009,1.799413 1.77546,1.799413 1.0376,0 1.77545,-0.853568 1.77545,-1.799413 0,-1.015054 -0.83008,-1.776344 -1.77545,-1.776344 -1.03761,-0.09228 -1.77546,0.76129 -1.77546,1.776344 m 0.2767,18.8477 h 2.90528 v -14.626 H 160.895 Z m -15.63321,-1.222679 c 1.77546,1.038123 3.73537,1.499511 5.81058,1.499511 2.90528,0 6.17949,-0.853567 6.17949,-4.2217 0,-2.722189 -1.68322,-4.406255 -5.71834,-5.144476 -1.0376,-0.184555 -2.99751,-0.276833 -2.99751,-1.684066 0,-1.130401 1.40652,-1.499511 2.99751,-1.499511 1.59099,0 3.18198,0.36911 4.58851,1.222678 l 0.94537,-2.537634 c -1.70628,-0.945845 -3.57396,-1.499511 -5.53388,-1.407233 -2.90528,0 -5.9028,0.853567 -5.9028,4.406255 0,3.552688 3.08975,4.129423 5.34941,4.498533 1.86769,0.36911 3.36645,0.922776 3.36645,2.145454 0,1.130401 -1.59099,1.499511 -3.18198,1.499511 -1.68322,0 -3.3895,-0.36911 -4.88826,-1.222678 z m -10.58354,1.222679 h 2.90529 V 24.819357 c 0.73785,-0.276833 1.59099,-0.461388 2.42107,-0.461388 0.76091,0 1.59099,0.184555 2.25967,0.553665 l 1.12983,-2.629911 c -1.0376,-0.461388 -2.25967,-0.645943 -3.3895,-0.645943 -1.86768,0 -3.64313,0.36911 -5.32636,1.222678 z m -13.21213,-8.627956 c 0,-2.629912 1.3143,-3.644965 3.18198,-3.644965 1.86769,0 3.18198,1.1304 3.18198,3.644965 v 0.184555 h -6.36396 z m 9.36148,0.945845 c 0,-5.259823 -2.5133,-7.405277 -6.1795,-7.405277 -3.66619,0 -6.17949,2.145454 -6.17949,7.405277 v 0.645944 c 0,5.167545 2.72082,7.312999 6.84817,7.312999 1.86768,0 3.73537,-0.461388 5.41859,-1.499511 l -0.92232,-2.537634 c -1.40652,0.853568 -2.90528,1.222679 -4.49627,1.222679 -2.3519,0 -3.85066,-1.222679 -3.85066,-3.552688 v -0.09228 h 9.36148 z M 105.16424,22.00489 h -3.08974 l 5.9028,14.626 h 2.99751 l 5.90281,-14.626 h -2.99752 l -4.31181,11.16559 z m -9.269242,-4.2217 c 0,1.038123 0.85314,1.799413 1.775452,1.799413 1.037602,0 1.775453,-0.853568 1.775453,-1.799413 0,-1.015054 -0.830082,-1.776344 -1.775453,-1.776344 -0.922312,-0.09228 -1.683221,0.76129 -1.775452,1.776344 m 0.368925,18.8477 h 2.905286 v -14.626 h -2.997517 z m -15.909897,0 h 2.905286 V 24.819357 c 0.830081,-0.369111 1.775452,-0.461388 2.720823,-0.461388 2.236609,0 3.735367,1.1304 3.735367,4.406255 v 7.866666 h 2.905286 v -7.589833 c 0,-5.167546 -2.720824,-7.405277 -6.456191,-7.405277 -2.075204,-0.09228 -4.035118,0.36911 -5.902802,1.222678 z M 62.092231,27.910656 c 0,6.55171 3.089748,9.089344 7.30933,9.089344 4.196523,0 7.286272,-2.537634 7.286272,-9.089344 V 17.598634 h -2.974459 v 10.312022 c 0,4.683089 -1.706279,6.274877 -4.311813,6.274877 -2.605534,0 -4.311813,-1.591788 -4.311813,-6.274877 V 17.598634 H 62 v 10.312022 z"
           id="path3"
           fill="#008db0" />
        <path
           d="m 186.7316,80.507901 h 4.5983 v -1.467269 h -4.5983 V 76.738149 H 192 v -1.376975 h -6.77035 v 9.458239 H 192 v -1.376975 h -5.2684 z m -9.38144,-0.925508 c 0,-2.27991 1.03981,-3.115124 2.72663,-3.115124 0.83185,0 1.77924,0.27088 2.42623,0.835214 l 0.57768,-1.286682 C 182.22574,75.361174 181.09349,75 179.98436,75 c -2.44934,0 -4.32101,1.286682 -4.32101,4.492099 v 0.925508 c 0,3.205418 1.77924,4.492099 4.32101,4.492099 1.10913,0 2.14895,-0.361173 3.09634,-1.015801 l -0.57768,-1.286681 c -0.73942,0.564334 -1.59438,0.835214 -2.42623,0.835214 -1.68682,0 -2.72663,-0.835214 -2.72663,-3.115124 z m -10.97583,5.23702 h 1.50196 v -6.704289 l 3.92819,6.704289 h 1.68681 V 75.27088 h -1.50196 v 6.794583 l -3.92819,-6.794583 h -1.68681 z m -5.91539,-7.336343 1.10914,3.115124 h -2.33381 z m -4.22858,7.336343 h 1.59438 l 1.03982,-2.844244 h 3.37362 l 1.03981,2.844244 h 1.68682 l -3.48916,-9.458239 h -1.59438 z m -16.05937,-4.311512 h 4.59829 v -1.467269 h -4.59829 v -2.302483 h 5.2684 v -1.376975 h -6.77035 v 9.458239 h 1.50195 z m -3.74333,-1.376975 h -3.85887 v 1.286681 h 3.85887 z m -10.97583,1.376975 h 4.59829 v -1.467269 h -4.59829 v -2.302483 h 5.24529 v -1.376975 h -6.74724 v 9.458239 h 6.74724 v -1.376975 h -5.24529 z m -5.36082,0 c 0,2.099323 -1.03982,2.934537 -2.6342,2.934537 h -1.40953 v -6.704289 h 1.40953 c 1.68681,0 2.6342,0.744921 2.6342,2.934537 z m -5.63811,4.311512 h 3.00391 c 2.54177,0 4.22858,-1.196388 4.22858,-4.311512 v -0.925508 c 0,-3.024831 -1.68681,-4.311513 -4.22858,-4.311513 h -3.00391 z m -2.24138,-5.688487 h -3.85887 v 1.286681 h 3.85887 z M 98.416637,83.984199 C 99.733736,84.638826 101.23569,85 102.73765,85 c 1.59438,0 3.74333,-0.361174 3.74333,-2.663657 0,-1.738149 -1.13224,-2.48307 -3.46605,-3.115124 -0.76253,-0.180587 -2.07963,-0.451467 -2.07963,-1.557562 0,-0.925508 1.03982,-1.106095 1.9872,-1.106095 1.01671,0 1.9641,0.27088 2.81906,0.835214 l 0.64699,-1.286681 c -1.03981,-0.654628 -2.24138,-1.015801 -3.46605,-1.015801 -1.77924,0 -3.581583,0.564334 -3.581583,2.573363 0,2.009029 1.894773,2.663657 3.304303,3.024831 1.40953,0.361173 2.24138,0.722347 2.24138,1.647855 0,0.925508 -0.83185,1.286682 -2.14895,1.286682 -1.03982,0 -2.07963,-0.270881 -3.003914,-0.835215 z m -8.457163,-7.336343 h 3.188766 v 8.081264 h 1.501955 v -7.990971 h 3.188767 v -1.376975 h -7.971916 z m -9.011731,3.769751 c 0,3.205418 1.594383,4.492099 3.766441,4.492099 2.148951,0 3.743335,-1.286681 3.743335,-4.492099 V 75.27088 h -1.594384 v 5.146727 c 0,2.370203 -0.831852,3.115124 -2.148951,3.115124 -1.317099,0 -2.172058,-0.744921 -2.172058,-3.115124 V 75.27088 h -1.594383 z m -5.70743,-3.024831 1.109136,3.115125 h -2.333807 z m -4.32101,7.336344 h 1.594384 l 1.016708,-2.844244 h 3.396729 l 1.016708,2.844244 h 1.594383 l -3.46605,-9.45824 h -1.594383 z m -7.232492,-4.221219 h 4.043726 v 4.311512 H 69.32492 V 75.27088 h -1.594383 v 3.769752 H 63.594383 V 75.27088 H 62 v 9.45824 h 1.594383 z"
           id="path4"
           fill="#0f0c0a" />
        <path
           d="m 150.66377,76.44208 c 1.62319,0 2.08695,0.591017 2.08695,1.442081 0,0.874704 -0.46376,1.44208 -2.08695,1.44208 h -1.97102 V 76.44208 Z M 153.21449,85 H 155 l -2.82899,-4.420804 C 153.4,80.295508 154.35072,79.231678 154.25797,77.884161 154.25797,76.158392 153.21449,75 150.57101,75 H 147 v 10 h 1.6 v -4.137116 h 1.97101 z"
           id="path5"
           fill="#0f0c0a" />
      </g>
    </g>
  </g>
  <rect
     style="fill:#4f4f4f;fill-opacity:1"
     id="rect6"
     width="0.86136687"
     height="77.523018"
     x="246.6479"
     y="3.73259" />
  <g
     id="text4885"
     style="font-size:17.3333px;white-space:pre"
     transform="translate(3.7325898,5.1682013)"
     aria-label="TRAVAIL">
    <path
       style="font-weight:bold;font-family:'SF Pro';-inkscape-font-specification:'SF Pro Bold';fill:#4f4f4f"
       d="m 259.4746,65.437317 h 2.55599 V 55.331868 h 3.53775 V 53.22445 h -9.62303 v 2.107418 h 3.52929 z"
       id="path13" />
    <path
       style="font-family:'SF Pro';-inkscape-font-specification:'SF Pro';fill:#4e4e4e"
       d="m 267.15102,65.437317 h 1.52343 v -4.832673 h 2.82682 q 0.0254,0 0.0423,0 0.0254,0 0.0508,0 l 2.61523,4.832673 h 1.7858 l -2.82681,-5.069652 q 1.14257,-0.363931 1.79426,-1.286456 0.66016,-0.930987 0.66016,-2.200516 v -0.01693 q 0,-1.100258 -0.48242,-1.912757 -0.48242,-0.820962 -1.36263,-1.269529 -0.87174,-0.45703 -2.04817,-0.45703 h -4.57877 z m 1.52343,-6.178374 v -4.680329 h 2.85221 q 1.17643,0 1.84505,0.617837 0.67708,0.609374 0.67708,1.701169 v 0.01693 q 0,1.125649 -0.64323,1.735023 -0.63476,0.609373 -1.81119,0.609373 z m 7.88801,6.178374 h 1.59961 l 3.68163,-10.384746 h 0.38932 V 53.22445 h -1.12565 z m 2.08203,-3.495436 h 6.43228 l -0.50781,-1.294919 h -5.41666 z m 6.90623,3.495436 h 1.59961 L 282.61388,53.22445 h -0.73633 v 1.828121 z m 5.17122,0 h 1.5065 l 4.5026,-12.212867 h -1.59961 l -3.63931,10.384745 h -0.0339 L 287.81895,53.22445 h -1.59961 z m 5.07811,0 h 1.59961 l 3.68163,-10.384746 h 0.38932 V 53.22445 h -1.12565 z m 2.08203,-3.495436 h 6.43228 l -0.50781,-1.294919 h -5.41666 z m 6.90623,3.495436 h 1.59961 L 301.85147,53.22445 h -0.73633 v 1.828121 z m 2.99609,0 h 1.52344 V 53.22445 h -1.52344 z m 3.89323,0 h 7.41404 v -1.371091 h -5.89061 V 53.22445 h -1.52343 z"
       id="path14" />
  </g>
  <g
     id="text3410"
     style="font-size:17.3333px;white-space:pre"
     transform="translate(3.7325898,5.1682013)"
     aria-label="NUMÉRIQUE DE&#10;">
    <path
       style="font-weight:bold;font-family:'SF Pro';-inkscape-font-specification:'SF Pro Bold';fill:#4f4f4f"
       d="m 256.55469,43.587963 h 2.54752 v -7.998031 h 1.07486 l -2.14127,-1.616534 6.65233,9.614565 h 2.21745 V 31.375096 h -2.54752 v 7.938787 h -1.06641 l 2.14127,1.616533 -6.64386,-9.55532 h -2.23437 z"
       id="path11" />
    <path
       style="font-family:'SF Pro';-inkscape-font-specification:'SF Pro';fill:#4e4e4e"
       d="m 273.96416,43.791088 q 1.51497,0 2.5983,-0.567056 1.08333,-0.567057 1.65885,-1.574216 0.58398,-1.015623 0.58398,-2.344397 v -7.930323 h -1.52343 v 7.828761 q 0,0.939451 -0.38932,1.658851 -0.38933,0.710936 -1.13412,1.117185 -0.73632,0.40625 -1.79426,0.40625 -1.05794,0 -1.80273,-0.40625 -0.74479,-0.406249 -1.14258,-1.117185 -0.38932,-0.7194 -0.38932,-1.658851 v -7.828761 h -1.52344 v 7.930323 q 0,1.328774 0.58399,2.344397 0.58398,1.007159 1.66731,1.574216 1.0918,0.567056 2.60677,0.567056 z m 7.21092,-0.203125 h 1.42187 v -9.436831 h 0.69401 l -1.65039,-2.437495 4.90885,11.874326 h 1.28645 l 4.90885,-11.874326 -1.65039,2.437495 h 0.69401 v 9.436831 h 1.42187 V 31.375096 h -1.76041 l -4.23176,10.291647 h -0.0508 l -4.23177,-10.291647 h -1.76041 z m 14.40492,0 h 7.56639 v -1.371091 h -6.04295 v -4.197908 h 5.7298 v -1.354165 h -5.7298 v -3.918612 h 6.04295 V 31.375096 H 295.58 Z m 4.20637,-13.194636 1.77734,-2.445958 h -1.51497 l -1.37955,2.445958 z m 5.36588,13.194636 h 1.52343 V 38.75529 h 2.82682 q 0.0254,0 0.0423,0 0.0254,0 0.0508,0 l 2.61523,4.832673 h 1.7858 l -2.82682,-5.069651 q 1.14258,-0.363932 1.79427,-1.286456 0.66016,-0.930988 0.66016,-2.200517 v -0.01693 q 0,-1.100258 -0.48242,-1.912757 -0.48243,-0.820962 -1.36263,-1.269528 -0.87175,-0.457031 -2.04818,-0.457031 h -4.57876 z m 1.52343,-6.178373 v -4.68033 h 2.85221 q 1.17643,0 1.84505,0.617838 0.67708,0.609373 0.67708,1.701168 v 0.01693 q 0,1.125649 -0.64323,1.735023 -0.63476,0.609374 -1.81119,0.609374 z m 8.86131,6.178373 h 1.52343 V 31.375096 h -1.52343 z m 9.05597,0.203125 q 1.73503,0 2.98763,-0.770181 1.26106,-0.770181 1.94661,-2.18359 0.68554,-1.413408 0.68554,-3.351556 v -0.01693 q 0,-1.938147 -0.68554,-3.343092 -0.68555,-1.413409 -1.94661,-2.18359 -1.26107,-0.77018 -2.98763,-0.77018 -1.72656,0 -2.99608,0.77018 -1.26107,0.770181 -1.95508,2.18359 -0.68554,1.404945 -0.68554,3.343092 v 0.01693 q 0,1.938148 0.68554,3.351556 0.68555,1.413409 1.94661,2.18359 1.26953,0.770181 3.00455,0.770181 z m 0,-1.404945 q -1.2526,0 -2.16666,-0.600911 -0.91406,-0.60091 -1.41341,-1.701168 -0.49088,-1.100259 -0.49088,-2.598303 v -0.01693 q 0,-1.506507 0.49935,-2.598302 0.49934,-1.100258 1.4134,-1.692705 0.91407,-0.60091 2.1582,-0.60091 1.24414,0 2.14974,0.60091 0.91406,0.592447 1.40494,1.692705 0.49935,1.100258 0.49935,2.598302 v 0.01693 q 0,1.489581 -0.49088,2.589839 -0.49089,1.100258 -1.39648,1.709632 -0.9056,0.600911 -2.16667,0.600911 z m 3.30924,2.581375 h 1.70963 l -3.54621,-4.874991 h -1.70964 z m 9.06444,-1.17643 q 1.51497,0 2.5983,-0.567056 1.08333,-0.567057 1.65885,-1.574216 0.58399,-1.015623 0.58399,-2.344397 v -7.930323 h -1.52344 v 7.828761 q 0,0.939451 -0.38932,1.658851 -0.38932,0.710936 -1.13411,1.117185 -0.73633,0.40625 -1.79427,0.40625 -1.05794,0 -1.80273,-0.40625 -0.74479,-0.406249 -1.14258,-1.117185 -0.38932,-0.7194 -0.38932,-1.658851 v -7.828761 h -1.52343 v 7.930323 q 0,1.328774 0.58398,2.344397 0.58398,1.007159 1.66731,1.574216 1.0918,0.567056 2.60677,0.567056 z m 7.21092,-0.203125 h 7.56639 V 42.216872 H 345.701 v -4.197908 h 5.7298 v -1.354165 h -5.7298 v -3.918612 h 6.04295 v -1.371091 h -7.56639 z m 13.12693,0 h 4.10481 q 1.81966,0 3.10612,-0.7194 1.28645,-0.727863 1.972,-2.098954 0.68554,-1.371091 0.68554,-3.292311 v -0.01693 q 0,-1.92122 -0.69401,-3.275384 -0.68554,-1.362628 -1.972,-2.082028 -1.28645,-0.727863 -3.09765,-0.727863 h -4.10481 z m 1.52344,-1.371091 v -9.470685 h 2.47981 q 1.38802,0 2.3444,0.550129 0.96484,0.541666 1.46419,1.599607 0.49934,1.05794 0.49934,2.581375 v 0.01693 q 0,1.514971 -0.49934,2.572912 -0.49935,1.049477 -1.46419,1.599606 -0.95638,0.550129 -2.3444,0.550129 z m 10.24086,1.371091 h 7.56639 v -1.371091 h -6.04296 v -4.197908 h 5.72981 v -1.354165 h -5.72981 v -3.918612 h 6.04296 v -1.371091 h -7.56639 z"
       id="path12" />
  </g>
  <g
     id="text361"
     style="font-size:17.3333px;white-space:pre"
     transform="translate(3.7325898,5.1682013)"
     aria-label="ESPACE&#10;">
    <path
       style="font-weight:bold;font-family:'SF Pro';-inkscape-font-specification:'SF Pro Bold';fill:#4f4f4f"
       d="m 256.55469,21.738609 h 8.09113 v -2.107417 h -5.53515 v -3.07226 h 5.222 V 14.56154 h -5.222 v -2.92838 h 5.53515 V 9.5257424 h -8.09113 z"
       id="path9" />
    <path
       style="font-family:'SF Pro';-inkscape-font-specification:'SF Pro';fill:#4e4e4e"
       d="m 270.65492,21.941734 q 1.39648,0 2.40364,-0.43164 1.01562,-0.43164 1.55729,-1.227211 0.55013,-0.795571 0.55013,-1.878903 v -0.0085 q 0,-0.930988 -0.3724,-1.591143 -0.36393,-0.668618 -1.15104,-1.117185 -0.77864,-0.448567 -2.03124,-0.7194 l -1.35417,-0.296223 q -1.19335,-0.26237 -1.76041,-0.74479 -0.56706,-0.482421 -0.56706,-1.227212 v -0.0085 q 0,-0.592447 0.33008,-1.03255 0.33854,-0.440104 0.94792,-0.685546 0.60937,-0.245442 1.42187,-0.245442 0.77864,0 1.36263,0.236979 0.59244,0.236978 0.95637,0.677082 0.36394,0.440103 0.45703,1.066404 l 0.0169,0.118489 h 1.52344 l -0.008,-0.126953 q -0.0677,-0.998696 -0.63476,-1.760413 -0.5586,-0.761717 -1.49805,-1.1848934 -0.93945,-0.4316398 -2.1328,-0.4316398 -1.25261,0 -2.22591,0.4401033 -0.96484,0.4316399 -1.51497,1.2018209 -0.55013,0.761717 -0.5586,1.768876 v 0.0085 q 0,1.337237 0.85482,2.166662 0.86328,0.820962 2.64908,1.218748 l 1.35417,0.296223 q 1.26106,0.279297 1.81966,0.761718 0.55859,0.482421 0.55859,1.286456 v 0.0085 q 0,0.626301 -0.35547,1.091795 -0.347,0.465494 -0.99023,0.7194 -0.64323,0.245442 -1.52344,0.245442 -0.8802,0 -1.55729,-0.236979 -0.66861,-0.245442 -1.07486,-0.685546 -0.40625,-0.448566 -0.49935,-1.05794 l -0.0169,-0.11849 h -1.52343 l 0.008,0.11849 q 0.0762,1.041013 0.66016,1.802731 0.59244,0.761717 1.59114,1.17643 1.00716,0.406249 2.32747,0.406249 z m 7.05011,-4.56184 h 3.58854 q 1.15104,0 2.03124,-0.499348 0.88021,-0.499348 1.37956,-1.388018 0.50781,-0.88867 0.50781,-2.048173 v -0.01693 q 0,-1.159503 -0.50781,-2.03971 -0.49935,-0.880207 -1.37956,-1.371091 -0.8802,-0.4908846 -2.03124,-0.4908846 h -3.58854 v 1.3541636 h 3.19922 q 1.31184,0 2.03124,0.677082 0.7194,0.677082 0.7194,1.887367 v 0.01693 q 0,1.20182 -0.7194,1.887366 -0.7194,0.677082 -2.03124,0.677082 h -3.19922 z m -0.76171,4.358715 h 1.52343 V 9.5257424 h -1.52343 z m 8.10805,0 h 1.59961 l 3.68163,-10.384745 h 0.38933 V 9.5257424 h -1.12565 z m 2.08203,-3.495436 h 6.43228 l -0.50781,-1.294919 h -5.41666 z m 6.90624,3.495436 h 1.5996 L 291.1028,9.5257424 h -0.73633 v 1.8281216 z m 7.76105,0.203125 q 1.27799,0 2.31901,-0.473957 1.04101,-0.473958 1.73502,-1.337237 0.69401,-0.871744 0.92252,-2.03971 l 0.0169,-0.08463 h -1.54036 l -0.0254,0.07617 q -0.26237,0.804035 -0.74479,1.354164 -0.48242,0.541666 -1.15951,0.820962 -0.66861,0.279297 -1.52343,0.279297 -1.21028,0 -2.11588,-0.609374 -0.9056,-0.609374 -1.40495,-1.709632 -0.49088,-1.108722 -0.49088,-2.589839 v -0.0085 q 0,-1.489581 0.49088,-2.581376 0.49935,-1.100258 1.39649,-1.701168 0.90559,-0.609374 2.12434,-0.609374 0.86328,0 1.54036,0.279296 0.67708,0.279297 1.14258,0.804035 0.47396,0.516275 0.71093,1.261065 l 0.0592,0.186198 h 1.54036 l -0.0169,-0.08464 q -0.22851,-1.159503 -0.93098,-2.022783 -0.69401,-0.863279 -1.73503,-1.3457002 -1.04101,-0.482421 -2.31054,-0.482421 -1.70117,0 -2.95377,0.7786442 -1.2526,0.770181 -1.93815,2.18359 -0.68554,1.413408 -0.68554,3.334629 v 0.0085 q 0,1.92122 0.68554,3.343093 0.68555,1.413408 1.93815,2.192053 1.26107,0.778644 2.95377,0.778644 z m 6.78775,-0.203125 h 7.56639 v -1.371091 h -6.04296 V 16.16961 h 5.72981 v -1.354164 h -5.72981 v -3.918612 h 6.04296 V 9.5257424 h -7.56639 z"
       id="path10" />
  </g>
</svg>
